# xmcd
#
# Track frame offsets:
#	150
#	17956
#	37576
#	59667
#	76081
#	93242
#	117648
#	139330
#	166972
#	186004
#	201496
#	221332
#	237188
#	255607
#	279999
#	304514
#	319111
#	338816
#
# Disc length: 4754
#
# Revision: 2
# Processed by: cddbd v1.5.1PL0 Copyright (c) Steve Scherf et al.
# Submitted via: EasyCDDAExtractor 5.0.6
# Normalized: r1:DSETVAR1
#
DISCID=fa129012
DTITLE=Various Artist - Sentimental
DYEAR=1900
DGENRE=Other
TTITLE0=Ten Sharp - You
TTITLE1=Roxette - Crash!Boom!Bang!
TTITLE2=Phil Collins - Another Day in Paradise
TTITLE3=Lighthouse family - Ain't no sunshine
TTITLE4=Tito and Tarantila - After Dark
TTITLE5=Michael Jackson - Give in to me
TTITLE6=Sam Brown - Stop
TTITLE7=Sade - No ordinary love
TTITLE8=Lenny Kravitz - I belong to you
TTITLE9=Madonna - Gone
TTITLE10=Terence Trent D'Arby - Sign your name
TTITLE11=Glen Medeiros - Nothing's gonna change my love
TTITLE12=Leo Sayer - When I need you
TTITLE13=Oystein Sevag - The door is open
TTITLE14=Leonard Cohen - Dance me to the end of love
TTITLE15=Adriano Celentano - L'arcobaleno
TTITLE16=Lara Fabian - Je t'aime
TTITLE17=Julio Iglesias - When you tell me you love me
EXTD=
EXTT0=
EXTT1=
EXTT2=
EXTT3=
EXTT4=
EXTT5=
EXTT6=
EXTT7=
EXTT8=
EXTT9=
EXTT10=
EXTT11=
EXTT12=
EXTT13=
EXTT14=
EXTT15=
EXTT16=
EXTT17=
PLAYORDER=
